<svg xmlns="http://www.w3.org/2000/svg" viewBox="0 0 100 100">
  <rect width="100" height="100" rx="22" fill="#0a0e0a"/>
  <g transform="translate(7,8) scale(0.86)">
    <path d="M38 24 C30 14 22 12 16 8" stroke="#e0202a" stroke-width="4" fill="none" stroke-linecap="round"/>
    <path d="M62 24 C70 14 78 12 84 8" stroke="#2ecc40" stroke-width="4" fill="none" stroke-linecap="round"/>
    <path d="M32 44 L14 38 M32 56 L12 58 M34 68 L18 76" stroke="#e0202a" stroke-width="4" fill="none" stroke-linecap="round"/>
    <path d="M68 44 L86 38 M68 56 L88 58 M66 68 L82 76" stroke="#2ecc40" stroke-width="4" fill="none" stroke-linecap="round"/>
    <ellipse cx="50" cy="26" rx="13" ry="10" fill="#e0202a"/>
    <path d="M50 16 A13 10 0 0 1 50 36 Z" fill="#2ecc40"/>
    <path d="M50 30 C34 30 26 44 26 60 C26 78 38 90 50 90 Z" fill="#e0202a"/>
    <path d="M50 30 C66 30 74 44 74 60 C74 78 62 90 50 90 Z" fill="#2ecc40"/>
    <line x1="50" y1="30" x2="50" y2="90" stroke="#0a0e0a" stroke-width="2.5"/>
    <line x1="30" y1="50" x2="46" y2="50" stroke="#0a0e0a" stroke-width="2"/>
    <line x1="54" y1="50" x2="70" y2="50" stroke="#0a0e0a" stroke-width="2"/>
  </g>
</svg>
